<?xml version="1.0" encoding="UTF-8"?>
<svg version="1.1" xmlns="http://www.w3.org/2000/svg" width="244" height="247">
<path d="M0 0 C80.52 0 161.04 0 244 0 C244 81.51 244 163.02 244 247 C163.48 247 82.96 247 0 247 C0 165.49 0 83.98 0 0 Z " fill="#FDFDFD" transform="translate(0,0)"/>
<path d="M0 0 C75.25700165 0 75.25700165 0 88.79296875 12.62109375 C95.52319361 19.87544232 96.2142581 27.76282715 96.3125 37.1875 C96.35600586 38.5497168 96.35600586 38.5497168 96.40039062 39.93945312 C96.47527556 47.98670338 94.3032425 53.67309417 89.75 60.25 C82.49554568 67.50445432 73.00703481 71.19693067 63 73 C63.89460938 73.23074219 64.78921875 73.46148437 65.7109375 73.69921875 C78.55246017 77.16287039 89.70430679 81.17384464 96.875 93.125 C101.20938008 104.20174909 101.88138825 115.67697873 97.125 126.7421875 C92.80230496 135.41759629 86.97161367 141.04795867 78 144.75 C51.39568674 153.30138641 29.96144984 150 0 150 C0 100.5 0 51 0 0 Z " fill="#151716" transform="translate(119,77)"/>
<path d="M0 0 C17.30162764 1.23583055 29.0499178 4.11458107 43 14 C43.67417969 14.47050781 44.34835938 14.94101562 45.04296875 15.42578125 C58.42911117 25.80999699 65.48874634 42.91716051 69 59 C69.49576389 63.88767695 69.5093687 68.71514146 69.45410156 73.62451172 C69.45296958 75.0255734 69.45361377 76.42663744 69.45587158 77.82769775 C69.457006 81.58316238 69.43370668 85.3381022 69.40557575 89.09344625 C69.3803465 93.03583109 69.37820332 96.9782317 69.37347412 100.92068481 C69.36110691 108.36476928 69.32837133 115.80861507 69.28807616 123.25259507 C69.24316209 131.73640039 69.22132236 140.2202179 69.20129442 148.70411277 C69.15963207 166.13621258 69.08940361 183.56808095 69 201 C60.76690053 201.09336908 52.53402843 201.16409944 44.30052757 201.20724869 C40.47587535 201.22797569 36.65158975 201.25601411 32.82714844 201.30175781 C29.12476716 201.34575596 25.42273472 201.36924846 21.72011185 201.37950897 C20.31933742 201.38680502 18.91857843 201.401047 17.51795578 201.42292023 C5.7448516 201.59918432 -6.91912968 200.68971762 -16.26171875 192.6875 C-16.83535156 192.130625 -17.40898437 191.57375 -18 191 C-18.62519531 190.401875 -19.25039063 189.80375 -19.89453125 189.1875 C-28.69175308 180.00134836 -30.42897371 169.10213492 -30.2109375 156.7890625 C-29.52874202 144.5348104 -23.34290579 134.37121738 -14.54296875 126.04296875 C-3.78243715 117.39817916 9.46495062 114.85063586 23 116 C25.86807822 116.38738949 28.71454792 116.86108622 31.5625 117.375 C32.26600586 117.50092529 32.96951172 117.62685059 33.69433594 117.7565918 C38.74821471 118.74821471 38.74821471 118.74821471 41 121 C39.865625 121.56847656 38.73125 122.13695312 37.5625 122.72265625 C26.44107818 128.38570397 16.83922541 133.45734512 11 145 C10.63261719 145.71414062 10.26523437 146.42828125 9.88671875 147.1640625 C8.62204593 151.20878703 8.67101558 155.03658132 8.6875 159.25 C8.67138672 160.05824219 8.65527344 160.86648437 8.63867188 161.69921875 C8.63098799 171.30407236 11.6739487 179.71706699 18 187 C26.74260911 194.67208555 35.59501218 197.30951013 47 198 C46.72285156 197.11957031 46.44570312 196.23914063 46.16015625 195.33203125 C45.61681641 193.58986328 45.61681641 193.58986328 45.0625 191.8125 C44.70285156 190.66394531 44.34320313 189.51539063 43.97265625 188.33203125 C40.42165808 176.16736684 40.51378518 162.86367292 46.2890625 151.453125 C50.95620835 143.21698527 57.16850585 135.45518326 65 130 C65.66 130 66.32 130 67 130 C60.75870136 106.25135559 52.64524747 78.69881975 30.30517578 64.95751953 C28.37224471 63.83888062 26.4169569 62.78396213 24.4375 61.75 C23.84372559 61.43248779 23.24995117 61.11497559 22.63818359 60.7878418 C15.25871111 57.16666324 8.35189751 56.08797438 0 54 C0 36.18 0 18.36 0 0 Z " fill="#141615" transform="translate(44,26)"/>
<path d="M0 0 C0.33 0 0.66 0 1 0 C1 46.86 1 93.72 1 142 C-75.69907407 142 -75.69907407 142 -86 132 C-86.62519531 131.401875 -87.25039062 130.80375 -87.89453125 130.1875 C-96.69175308 121.00134836 -98.42897371 110.10213492 -98.2109375 97.7890625 C-97.52874202 85.5348104 -91.34290579 75.37121738 -82.54296875 67.04296875 C-71.78243715 58.39817916 -58.53504938 55.85063586 -45 57 C-42.13192178 57.38738949 -39.28545208 57.86108622 -36.4375 58.375 C-35.73399414 58.50092529 -35.03048828 58.62685059 -34.30566406 58.7565918 C-29.25178529 59.74821471 -29.25178529 59.74821471 -27 62 C-28.7015625 62.85271484 -28.7015625 62.85271484 -30.4375 63.72265625 C-41.55892182 69.38570397 -51.16077459 74.45734512 -57 86 C-57.36738281 86.71414062 -57.73476563 87.42828125 -58.11328125 88.1640625 C-59.37795407 92.20878703 -59.32898442 96.03658132 -59.3125 100.25 C-59.32861328 101.05824219 -59.34472656 101.86648437 -59.36132812 102.69921875 C-59.36901201 112.30407236 -56.3260513 120.71706699 -50 128 C-44.29687216 133.00478566 -38.33702677 136.13915988 -31 138 C-31.99 138.66 -32.98 139.32 -34 140 C-17.17 140.495 -17.17 140.495 0 141 C0 94.47 0 47.94 0 0 Z " fill="#1D1F1E" transform="translate(112,85)"/>
<path d="M0 0 C11.73773819 0 19.88371498 0.48042572 28.5625 8.3125 C35.48309679 15.94290159 37.39372507 22.71149256 37.375 32.75 C37.37258301 34.08635498 37.37258301 34.08635498 37.37011719 35.44970703 C37.24774381 42.00388091 36.37642795 47.28242514 33 53 C32.443125 54.0725 31.88625 55.145 31.3125 56.25 C25.70305259 62.92069422 17.45186856 67.10945045 9 69 C6.03 69 3.06 69 0 69 C0 46.23 0 23.46 0 0 Z " fill="#FDFDFD" transform="translate(147,151)"/>
<path d="M0 0 C11.58085994 2.1056109 20.25346042 4.05230053 27.3359375 13.84765625 C33.77394986 23.50467479 34.46994768 34.69437298 33 46 C30.83819202 52.70300852 27.03470025 60.36699024 20.96484375 64.328125 C20.29582031 64.63234375 19.62679687 64.9365625 18.9375 65.25 C17.93009766 65.72179687 17.93009766 65.72179687 16.90234375 66.203125 C10.54405735 68.86655503 8.67832261 68 0 68 C0 45.56 0 23.12 0 0 Z " fill="#FDFDFD" transform="translate(147,79)"/>
<path d="M0 0 C8.58 0 17.16 0 26 0 C26 0.33 26 0.66 26 1 C21.38 1.33 16.76 1.66 12 2 C12.66 3.65 13.32 5.3 14 7 C12 8 12 8 9.3984375 7.22265625 C7.90183594 6.64837891 7.90183594 6.64837891 6.375 6.0625 C5.37210938 5.68222656 4.36921875 5.30195312 3.3359375 4.91015625 C2.56507813 4.60980469 1.79421875 4.30945313 1 4 C1.33 3.34 1.66 2.68 2 2 C1.34 1.34 0.68 0.68 0 0 Z " fill="#2E2E2E" transform="translate(153,77)"/>
<path d="M0 0 C0.33 0 0.66 0 1 0 C0.125 7.75 0.125 7.75 -1 10 C-0.67 10.99 -0.34 11.98 0 13 C-0.99 13.33 -1.98 13.66 -3 14 C-4.3125 12.0625 -4.3125 12.0625 -5 9 C-3.6542729 5.79384541 -1.89068242 2.91215849 0 0 Z " fill="#222222" transform="translate(22,160)"/>
<path d="M0 0 C4.62 0 9.24 0 14 0 C14 0.33 14 0.66 14 1 C13.030625 1.12375 12.06125 1.2475 11.0625 1.375 C9.5465625 1.684375 9.5465625 1.684375 8 2 C7.67 2.66 7.34 3.32 7 4 C4.4375 4.625 4.4375 4.625 2 5 C1.34 3.35 0.68 1.7 0 0 Z " fill="#0C0E0D" transform="translate(164,78)"/>
<path d="M0 0 C0.33 0.66 0.66 1.32 1 2 C1.66 2 2.32 2 3 2 C4.0326802 4.78823655 4.04509293 5.8677274 3.0625 8.75 C2.711875 9.4925 2.36125 10.235 2 11 C1.67 11 1.34 11 1 11 C0.63890458 9.35567294 0.28629924 7.7094792 -0.0625 6.0625 C-0.25972656 5.14597656 -0.45695312 4.22945312 -0.66015625 3.28515625 C-0.77230469 2.53105469 -0.88445312 1.77695313 -1 1 C-0.67 0.67 -0.34 0.34 0 0 Z " fill="#202221" transform="translate(107,135)"/>
<path d="M0 0 C5.01113235 1.4317521 6.94469549 3.98445693 10 8 C7.625 7.8125 7.625 7.8125 5 7 C3.6875 4.4375 3.6875 4.4375 3 2 C2.01 2 1.02 2 0 2 C0 1.34 0 0.68 0 0 Z " fill="#1B1D1C" transform="translate(200,85)"/>
<path d="M0 0 C-0.8125 2.4375 -0.8125 2.4375 -2 5 C-2.99 5.33 -3.98 5.66 -5 6 C-5.99 4.68 -6.98 3.36 -8 2 C-2.25 0 -2.25 0 0 0 Z " fill="#212322" transform="translate(164,217)"/>
<path d="M0 0 C1.98 0.495 1.98 0.495 4 1 C4 1.66 4 2.32 4 3 C4.66 3 5.32 3 6 3 C6 3.66 6 4.32 6 5 C3.03 4.505 3.03 4.505 0 4 C0 2.66666667 0 1.33333333 0 0 Z " fill="#2B2D2C" transform="translate(34,219)"/>
<path d="M0 0 C0.99 1.32 1.98 2.64 3 4 C1.625 5.5 1.625 5.5 0 7 C-0.66 7 -1.32 7 -2 7 C-1.125 2.25 -1.125 2.25 0 0 Z " fill="#232524" transform="translate(90,178)"/>
<path d="M0 0 C0.625 1.8125 0.625 1.8125 1 4 C0.01 5.485 0.01 5.485 -1 7 C-1.33 6.01 -1.66 5.02 -2 4 C-2.99 3.67 -3.98 3.34 -5 3 C-4.360625 2.690625 -3.72125 2.38125 -3.0625 2.0625 C-1.06389179 1.1654837 -1.06389179 1.1654837 0 0 Z " fill="#242525" transform="translate(173,84)"/>
</svg>
